<?xml version="1.0" encoding="UTF-8"?><svg id="a" xmlns="http://www.w3.org/2000/svg" width="512" height="512" xmlns:xlink="http://www.w3.org/1999/xlink" viewBox="0 0 512 512"><defs><linearGradient id="b" x1="256" y1="506" x2="256" y2="131.7077" gradientUnits="userSpaceOnUse"><stop offset="0" stop-color="#3b82f6"/><stop offset="1" stop-color="#2563eb"/></linearGradient></defs><rect x="6" y="6" width="500" height="500" rx="46.875" ry="46.875" fill="url(#b)"/><g opacity=".9"><path d="M384,121.9996H128c-17.6731,0-32,14.3269-32,32v165.328c0,17.6731,14.3269,32,32,32h64c10.0722,0,19.5567,4.7422,25.6,12.8l32,42.672c2.651,3.5346,7.6654,4.251,11.2,1.6.6064-.4548,1.1452-.9936,1.6-1.6l32-42.672c6.0433-8.0578,15.5278-12.8,25.6-12.8h64c17.6731,0,32-14.3269,32-32v-165.328c0-17.6731-14.3269-32-32-32ZM384,222.7356l-106.528,53.28c-6.72,3.36-14.112,5.024-21.472,5.024s-14.736-1.664-21.456-5.024l-106.544-53.28v-35.776l120.848,60.416c4.464,2.256,9.824,2.256,14.32,0l120.832-60.416v35.776Z" fill="#fff"/></g><path d="M459.2366,0H52.7634C23.6694,0,0,23.6694,0,52.7634v406.4733c0,29.0935,23.6694,52.7634,52.7634,52.7634h406.4733c29.0935,0,52.7634-23.6698,52.7634-52.7634V52.7634c0-29.094-23.6698-52.7634-52.7634-52.7634ZM500.2748,459.2366c0,22.6288-18.4094,41.0382-41.0382,41.0382H52.7634c-22.6283,0-41.0382-18.4094-41.0382-41.0382V52.7634c0-22.6283,18.4098-41.0382,41.0382-41.0382h406.4733c22.6288,0,41.0382,18.4098,41.0382,41.0382v406.4733Z" fill="#1d4ed8"/></svg>